<svg width="172" height="172" viewBox="0 0 172 172" fill="none" xmlns="http://www.w3.org/2000/svg">
  <g filter="url(#filter0_d_2754_11390)">
    <g clip-path="url(#clip0_2754_11390)">
      <path d="M85.6 163.2C130.668 163.2 167.2 126.668 167.2 81.6C167.2 36.5323 130.668 0 85.6 0C40.5323 0 4 36.5323 4 81.6C4 126.668 40.5323 163.2 85.6 163.2Z" fill="#3B1A6E"/>
      <path d="M93.7439 63.7952H87.5259L85.7879 48.6748L79.9943 60.7516H75.3675L69.574 48.7074L67.7951 63.7952H61.5771L64.8575 37.21H69.9167L77.6768 53.8482L85.3146 37.21H90.488L93.7357 63.7952H93.7439Z" fill="white"/>
      <path d="M108.677 45.7617H114.813L103.707 72.6571H97.6117L102.051 61.6166L94.9434 45.7617H101.267L105.013 55.1049L108.685 45.7617H108.668H108.677Z" fill="white"/>
      <path d="M42.4743 81.3393C42.4743 73.8566 48.4882 67.6387 55.9873 67.6387C60.6548 67.6387 64.7511 69.9969 67.1746 73.5465L62.4745 76.8268C61.0873 74.6726 59.0391 73.3588 56.2566 73.3588C51.7767 73.3588 48.5698 76.9492 48.5698 81.3393C48.5698 85.7294 51.6625 89.4504 56.2076 89.4504C59.0228 89.4504 61.0628 88.1366 62.4582 85.9824L67.1583 89.2627C64.7185 92.8123 60.6466 95.1705 55.971 95.1705C48.4882 95.1705 42.458 88.92 42.458 81.3638L42.4743 81.3475V81.3393Z" fill="white"/>
      <path d="M83.5272 76.6634H89.2474V94.6888H83.5272V92.4122C82.295 94.1176 80.0918 95.1458 77.807 95.1458C72.7478 95.1458 69.1982 91.3187 69.1982 85.6965C69.1982 80.0742 72.7478 76.1982 77.8805 76.1982C80.0837 76.1982 82.2869 77.1693 83.519 78.8258V76.6715L83.5272 76.6634ZM83.3395 85.6883C83.3395 83.3301 81.479 81.4859 79.1698 81.4859C76.7299 81.4859 75.049 83.379 75.049 85.6883C75.049 87.9976 76.7544 89.8581 79.2187 89.8581C81.528 89.8581 83.3395 87.8915 83.3395 85.6883Z" fill="white"/>
      <path d="M107.754 76.4595L106.408 81.894C105.282 81.2412 104.409 81.2086 103.829 81.2086C101.593 81.2086 99.7329 83.1017 99.7329 88.422V94.4033H94.0127V76.3779H99.6513V80.2049C100.696 77.2347 102.85 75.9209 105.053 75.9209C105.894 75.9209 106.832 76.0025 107.754 76.4676L107.738 76.4513L107.754 76.4595Z" fill="white"/>
      <path d="M123.03 66.8545H128.701V94.6719H123.03V92.6727C121.716 94.4027 119.285 95.1371 117.44 95.1371C112.961 95.1371 108.726 91.465 108.726 85.6388C108.726 79.8126 112.977 76.1895 117.44 76.1895C119.301 76.1895 121.724 76.9239 123.03 78.6294V66.8545ZM122.793 85.647C122.793 83.3377 120.827 81.4772 118.673 81.4772C116.518 81.4772 114.503 83.3703 114.503 85.647C114.503 87.9236 116.437 89.8494 118.673 89.8494C120.908 89.8494 122.793 87.9563 122.793 85.647Z" fill="white"/>
      <path d="M58.6065 99.0459H65.1998L56.1748 125.631H51.4747L47.9251 112.118L44.4897 125.631H39.7406L30.7891 99.0459H37.3007L42.2049 114.95L45.4852 102.824H50.471L53.7187 115.023L58.6228 99.0459H58.6065Z" fill="white"/>
      <path d="M78.827 107.622H84.5472V125.648H78.827V123.371C77.5948 125.077 75.3916 126.105 73.1068 126.105C68.0476 126.105 64.498 122.278 64.498 116.655C64.498 111.033 68.0476 107.157 73.1803 107.157C75.3835 107.157 77.5867 108.128 78.8188 109.785V107.63L78.827 107.622ZM78.6393 116.647C78.6393 114.289 76.7788 112.445 74.4696 112.445C72.0297 112.445 70.3488 114.338 70.3488 116.647C70.3488 118.957 72.0542 120.817 74.5185 120.817C76.8278 120.817 78.6393 118.85 78.6393 116.647Z" fill="white"/>
      <path d="M89.3213 125.631V97.8135H95.0415V125.631H89.3213Z" fill="white"/>
      <path d="M99.8145 125.631V97.8135H105.535V125.631H99.8145Z" fill="white"/>
      <path d="M128.408 118.312H115.205C115.751 120.05 117.253 121.127 119.407 121.127C121.113 121.127 122.842 120.36 123.969 119.267L126.906 122.972C125.127 124.906 122.051 126.097 119.032 126.097C113.312 126.097 109.297 122.164 109.297 116.68C109.297 110.821 113.809 107.149 118.983 107.149C124.156 107.149 128.481 110.772 128.481 116.256C128.481 116.754 128.448 117.415 128.399 118.304V118.32L128.408 118.312ZM122.818 114.95C122.736 113.171 121.162 111.98 119.113 111.98C117.408 111.98 115.751 112.796 115.18 114.95H122.818Z" fill="white"/>
      <path d="M143.185 107.623V111.947H139.407V125.648H133.687V111.947H130.406V107.623H133.687V101.168H139.407V107.623H143.185Z" fill="white"/>
    </g>
  </g>
  <defs>
    <filter id="filter0_d_2754_11390" x="0" y="0" width="171.2" height="171.2" filterUnits="userSpaceOnUse" color-interpolation-filters="sRGB">
      <feFlood flood-opacity="0" result="BackgroundImageFix"/>
      <feColorMatrix in="SourceAlpha" type="matrix" values="0 0 0 0 0 0 0 0 0 0 0 0 0 0 0 0 0 0 127 0" result="hardAlpha"/>
      <feOffset dy="4"/>
      <feGaussianBlur stdDeviation="2"/>
      <feComposite in2="hardAlpha" operator="out"/>
      <feColorMatrix type="matrix" values="0 0 0 0 0 0 0 0 0 0 0 0 0 0 0 0 0 0 0.25 0"/>
      <feBlend mode="normal" in2="BackgroundImageFix" result="effect1_dropShadow_2754_11390"/>
      <feBlend mode="normal" in="SourceGraphic" in2="effect1_dropShadow_2754_11390" result="shape"/>
    </filter>
    <clipPath id="clip0_2754_11390">
      <rect width="163.2" height="163.2" fill="white" transform="translate(4)"/>
    </clipPath>
  </defs>
</svg>