<svg version="1.1" xmlns="http://www.w3.org/2000/svg" width="100" height="100" x="0" y="0" role="img" viewBox="49 49 203 203" xml:space="preserve" aria-labelledby="gc-header-logo__title" preserveAspectRatio="xMinYMin meet">
  <title id="gc-header-logo__title">Giftcards.com - Make'em smile</title>
  <style>
    .st1{fill:#fff}
  </style>
  <circle cx="150" cy="150.5" r="100.18" style="fill: #3c286d"/>
  <path fill ="#fff" d="M110 112.33c0-9.29 7.35-16.92 16.78-16.92 5.17 0 9.67 2.18 12.52 5.59l-5.5 4.6c-1.75-2.04-4.22-3.27-7.02-3.27-5.26 0-9.29 4.55-9.29 10 0 5.36 3.93 10.24 9.53 10.24 3.65 0 7.68-2.04 7.68-5.26h-9.2v-6.02h17.3c0 12.37-6.87 17.92-15.6 17.92-10.04 0-17.2-7.68-17.2-16.88zM147.01 128.64V106.5h7.02v22.14h-7.02zM173.22 100.96c-3.46 0-4.65 1.8-4.69 4.36v1.18h4.74v5.31h-4.74v16.83h-7.02v-16.83h-4.12v-5.31h4.12v-1.37c0-6.97 3.84-10.67 10.24-10.67h2.8v6.5h-1.33zM191.25 106.5v5.31h-4.65v16.83h-7.02v-16.83h-4.03v-5.31h4.03v-7.92h7.02v7.92h4.65zM90.49 155.43c0-7.02 5.78-11.57 12.23-11.57 4.27 0 7.54 2.09 9.67 5.21l-5.45 3.41c-.85-1.33-2.65-2.13-4.17-2.13-3.22 0-5.12 2.32-5.12 5.07 0 2.8 1.9 5.21 5.12 5.21 1.52 0 3.32-.81 4.17-2.13l5.45 3.41c-2.13 3.13-5.4 5.21-9.67 5.21-6.45.02-12.23-4.67-12.23-11.69zM132.11 144.43h7.02v22.14h-7.02v-2.8c-1.52 2.09-4.22 3.37-7.02 3.37-6.21 0-10.57-4.69-10.57-11.61 0-6.97 4.36-11.66 10.67-11.66 2.7 0 5.4 1.19 6.92 3.22v-2.66zm-.24 11.1c0-2.89-2.28-5.17-5.12-5.17-2.99 0-5.07 2.32-5.07 5.17 0 2.7 2.09 5.12 5.12 5.12 2.84 0 5.07-2.42 5.07-5.12zM161.03 144.53l-1.66 6.68c-1.38-.81-2.47-.85-3.18-.85-2.75 0-5.03 2.32-5.03 8.87v7.35h-7.02v-22.14h6.92v4.69c1.28-3.65 3.94-5.26 6.64-5.26 1.05-.01 2.19.09 3.33.66zM179.72 132.39h6.97v34.18h-6.97v-2.47c-1.61 2.13-4.6 3.03-6.87 3.03-5.5 0-10.71-4.5-10.71-11.66s5.21-11.61 10.71-11.61c2.28 0 5.26.9 6.87 2.99v-14.46zm-.29 23.09c0-2.84-2.42-5.12-5.07-5.12-2.75 0-5.12 2.32-5.12 5.12 0 2.8 2.37 5.17 5.12 5.17 2.7 0 5.07-2.33 5.07-5.17zM190.36 159.41H197c0 1.09.81 2.37 2.8 2.37 1.47 0 2.7-.76 2.7-1.8 0-.71-.52-1.04-2.18-1.42l-2.89-.76c-6.5-1.75-6.68-5.45-6.68-7.3 0-3.27 3.7-6.64 9.06-6.64 4.17 0 9.24 1.94 9.15 7.49h-6.64c0-1.42-1-2.13-2.37-2.13-1.19 0-2.18.57-2.18 1.52 0 .85.76 1.33 1.9 1.61l3.84 1.04c5.55 1.52 6.02 5.03 6.02 6.54 0 4.88-5.07 7.21-9.53 7.21-4.95 0-9.64-2.7-9.64-7.73zM108.69 190.99c0-7.02 5.78-11.57 12.23-11.57 4.27 0 7.54 2.09 9.67 5.21l-5.45 3.41c-.85-1.33-2.66-2.13-4.17-2.13-3.22 0-5.12 2.32-5.12 5.07 0 2.8 1.9 5.21 5.12 5.21 1.52 0 3.32-.81 4.17-2.13l5.45 3.41c-2.13 3.13-5.4 5.21-9.67 5.21-6.44.02-12.23-4.67-12.23-11.69zM132.58 191.08c0-7.02 5.69-11.66 11.99-11.66s12.04 4.65 12.04 11.66c0 6.97-5.74 11.61-12.04 11.61s-11.99-4.64-11.99-11.61zm16.88 0c0-3.03-2.18-5.17-4.88-5.17s-4.88 2.13-4.88 5.17 2.18 5.12 4.88 5.12 4.88-2.08 4.88-5.12zM196.02 190.23v11.9H189v-11.71c0-3.41-1.71-4.5-3.51-4.5-2.18 0-3.79 1.52-3.79 5.4v10.81h-7.02v-11.57c0-3.41-1.71-4.65-3.46-4.65-1.9 0-3.84.95-3.84 4.65v11.57h-7.02v-22.14h7.02v4.31c.43-3.37 3.75-4.88 5.97-4.88 3.27 0 5.69 1.56 7.02 4.22 1.52-2.94 4.93-4.22 7.25-4.22 5.56 0 8.4 4.03 8.4 10.81z"/>
  <g>
    <path d="M145.35 98.44c0-2.84 2.37-5.17 5.07-5.17 2.75 0 5.12 2.37 5.12 5.17s-2.37 5.12-5.12 5.12c-2.65 0-5.07-2.27-5.07-5.12z" style="fill: #3cd57a"/>
    <path d="M96.63 197.58c0-2.84 2.37-5.17 5.07-5.17 2.75 0 5.12 2.37 5.12 5.17s-2.37 5.12-5.12 5.12c-2.66 0-5.07-2.27-5.07-5.12z" style="fill: #ff8a00"/>
  </g>
</svg>
